<svg width="36" height="36" viewBox="0 0 36 36" fill="none" xmlns="http://www.w3.org/2000/svg">
<path fill-rule="evenodd" clip-rule="evenodd" d="M26.6 17.595C26.6 18.2045 26.538 18.8131 26.4163 19.4064C26.2976 19.9856 26.1218 20.5543 25.8916 21.0979C25.6666 21.6318 25.3875 22.1464 25.0614 22.6263C24.7402 23.1031 24.3701 23.5505 23.9636 23.9583C23.5562 24.3643 23.1079 24.7339 22.632 25.0569C22.1512 25.3812 21.6366 25.6602 21.1031 25.8866C20.5594 26.116 19.9903 26.2918 19.4124 26.4104C18.8191 26.5326 18.2091 26.595 17.5996 26.595C16.9896 26.595 16.3796 26.5326 15.7872 26.4104C15.2084 26.2918 14.6393 26.116 14.0961 25.8866C13.5626 25.6602 13.0475 25.3812 12.5667 25.0569C12.0908 24.7339 11.6425 24.3643 11.236 23.9583C10.829 23.5505 10.459 23.1031 10.1373 22.6263C9.81294 22.1464 9.53342 21.6318 9.30754 21.0979C9.07723 20.5543 8.90102 19.9856 8.78192 19.4064C8.66152 18.8131 8.59998 18.2045 8.59998 17.595C8.59998 16.985 8.66148 16.3751 8.78196 15.7831C8.90106 15.2039 9.07726 14.6344 9.30758 14.0917C9.53345 13.5573 9.81298 13.0423 10.1373 12.5624C10.459 12.0851 10.8291 11.6386 11.236 11.2304C11.6425 10.8243 12.0908 10.4556 12.5667 10.1331C13.0475 9.80741 13.5626 9.5284 14.0961 9.30162C14.6393 9.07174 15.2084 8.89555 15.7872 8.77779C16.3796 8.65651 16.9896 8.59497 17.5996 8.59497C18.2091 8.59497 18.8191 8.65651 19.4124 8.77779C19.9903 8.89558 20.5594 9.07178 21.1031 9.30162C21.6366 9.52836 22.1512 9.80741 22.632 10.1331C23.108 10.4556 23.5563 10.8243 23.9636 11.2304C24.3701 11.6386 24.7402 12.0851 25.0614 12.5624C25.3875 13.0423 25.6666 13.5573 25.8916 14.0917C26.1218 14.6344 26.2976 15.2039 26.4163 15.7831C26.538 16.3751 26.6 16.985 26.6 17.595ZM14.3202 10.6433C12.1768 11.6554 10.5771 13.6303 10.0783 16.0104L10.0857 16.0104C10.3484 16.0128 13.5226 16.0422 17.1741 15.0721C15.8438 12.7087 14.4226 10.78 14.3202 10.6433ZM9.91974 17.3496C10.056 17.3549 13.8535 17.4401 17.811 16.2554C18.0311 16.687 18.2417 17.1247 18.4346 17.5615C18.3335 17.5904 18.2315 17.6203 18.1313 17.6537C13.9836 18.9949 11.8802 22.7263 11.8829 22.7303C10.6585 21.3693 9.91357 19.5693 9.91357 17.5948C9.91357 17.5378 9.91545 17.4821 9.91734 17.4259L9.91734 17.4259C9.9182 17.4006 9.91905 17.3753 9.91974 17.3496ZM22.6755 11.8267C21.3223 10.6335 19.5455 9.90978 17.5995 9.90978C16.975 9.90978 16.369 9.98537 15.7885 10.1251L15.8009 10.1419C15.9829 10.3856 17.3835 12.2614 18.6617 14.6084C21.5381 13.5301 22.6385 11.882 22.6748 11.8277L22.6755 11.8267ZM18.9397 18.841L18.9584 18.835C20.0399 21.6458 20.4864 23.9995 20.6003 24.671C19.6778 25.0633 18.6639 25.2801 17.5996 25.2801C15.817 25.2801 14.1804 24.6679 12.8756 23.6532C12.8916 23.6184 14.3726 20.4326 18.9074 18.8517C18.9181 18.8478 18.9289 18.8444 18.9397 18.841ZM21.8946 23.9688C23.6204 22.8043 24.8461 20.9551 25.188 18.8131C25.0298 18.7622 22.8795 18.0814 20.3986 18.4792C21.4068 21.2495 21.8164 23.5057 21.8946 23.9688ZM19.7639 16.8681C19.6044 16.4932 19.4317 16.1202 19.2533 15.7537C22.2684 14.5223 23.5047 12.7561 23.5347 12.7133L23.5351 12.7127C24.6136 14.0218 25.2653 15.6939 25.2829 17.5158C25.2808 17.5154 25.2777 17.5148 25.2738 17.514C25.0721 17.4719 22.5199 16.9404 19.9301 17.2663C19.876 17.1345 19.8207 17.0026 19.7639 16.8681Z" fill="black"/>
</svg>
