<svg width="83" height="29" viewBox="0 0 83 29" fill="none" xmlns="http://www.w3.org/2000/svg">
<path d="M0 13.6058H8.99684V12.1583H1.62567V7.50397H8.21741V6.07872H1.62567V1.69165H8.99684V0.244141H0V13.6058Z" fill="#F5EFE5"/>
<path d="M62.197 13.8516C66.4505 13.8516 68.7665 11.0011 68.7665 6.90351C68.7665 2.78367 66.4059 0 62.197 0C58.0104 0 55.6276 2.78367 55.6276 6.90351C55.6276 11.0011 57.9658 13.8516 62.197 13.8516ZM62.197 12.4263C58.8121 12.4263 57.231 10.1548 57.231 6.90351C57.231 3.67445 58.8566 1.44751 62.197 1.44751C65.5597 1.44751 67.1631 3.67445 67.1631 6.90351C67.1631 10.1548 65.582 12.4263 62.197 12.4263Z" fill="#F5EFE5"/>
<path d="M48.478 13.8516C51.9743 13.8516 54.0453 11.8696 54.5353 8.77415L52.9987 8.46237C52.5087 11.0011 51.1503 12.4263 48.478 12.4263C45.3157 12.4263 43.8014 10.2885 43.8014 6.90351C43.8014 3.62991 45.3157 1.44751 48.5225 1.44751C51.0167 1.44751 52.4197 2.82821 52.9319 5.27785L54.4462 4.96608C53.9563 1.91517 51.8852 0 48.5225 0C44.5363 0 42.198 2.6946 42.198 6.90351C42.198 11.1124 44.4249 13.8516 48.478 13.8516Z" fill="#F5EFE5"/>
<path d="M39.7366 13.6058V0.244141H38.1332V13.6058H39.7366Z" fill="#F5EFE5"/>
<path d="M30.2001 1.64711C32.6275 1.64711 33.4069 2.47108 33.4069 4.09675C33.4069 5.78922 32.2266 6.63546 30.2001 6.63546H26.7929V1.64711H30.2001ZM33.9414 13.6058H35.7897V13.3608L31.5808 7.92708C33.83 7.54851 35.0103 6.1678 35.0103 4.07448C35.0103 1.69165 33.6296 0.244141 30.356 0.244141H25.1672V13.6058H26.7929V8.03843H29.9329L33.9414 13.6058Z" fill="#F5EFE5"/>
<path d="M19.8055 13.6058H21.9656V0.244141H20.4291V5.56653C20.4291 7.54851 20.5181 10.0427 20.6295 11.8242H20.1841C19.516 10.399 18.4471 8.37247 17.3336 6.52411L13.4365 0.244141H11.0314V13.6058H12.5902V8.2834C12.5902 6.27915 12.5234 3.62909 12.3898 1.75846H12.902C13.5701 3.20597 14.4609 4.98752 15.3739 6.4573L19.8055 13.6058Z" fill="#F5EFE5"/>
<path d="M16.0107 17.0194C19.6852 17.0194 21.2885 18.6896 21.2885 22.2527C21.2885 25.5486 19.841 27.6196 16.1666 27.6196H12.8262V17.0194H16.0107ZM11.2228 29.0003H16.3002C20.3978 29.0003 22.8919 26.4839 22.8919 22.2527C22.8919 17.977 20.7095 15.6387 16.2334 15.6387H11.2228V29.0003Z" fill="#F5EFE5"/>
<path d="M80.8874 29.0003H82.6021L77.2574 15.6387H75.1641L69.7972 29.0003H71.4897L73.0263 24.9696H79.3285L80.8874 29.0003ZM74.1397 22.0523C74.7855 20.4266 75.4536 18.5337 75.9436 17.0639H76.4557C76.9011 18.5114 77.5692 20.4489 78.1928 22.0523L78.8386 23.7002H73.5162L74.1397 22.0523Z" fill="#F5EFE5"/>
<path d="M80.8874 29.0003H82.6021L77.2574 15.6387H75.1641L69.7972 29.0003H71.4897L73.0263 24.9696H79.3285L80.8874 29.0003ZM74.1397 22.0523C74.7855 20.4266 75.4536 18.5337 75.9436 17.0639H76.4557C76.9011 18.5114 77.5692 20.4489 78.1928 22.0523L78.8386 23.7002H73.5162L74.1397 22.0523Z" fill="#F5EFE5"/>
<path d="M25.2336 29.0003H34.8789V27.5528H26.8593V22.8985H34.0995V21.4733H26.8593V17.0862H34.8789V15.6387H25.2336V29.0003Z" fill="#F5EFE5"/>
<path d="M4.32678 18.0957C4.41126 20.4494 6.29983 22.338 8.65356 22.4225C6.29983 22.507 4.41126 24.3955 4.32678 26.7493C4.2423 24.3955 2.35373 22.507 0 22.4225C2.35373 22.338 4.2423 20.4494 4.32678 18.0957Z" fill="#F5EFE5"/>
<path d="M39.7488 29.0003V15.6387H38.1454V29.0003H39.7488Z" fill="#F5EFE5"/>
<path d="M65.6568 29.0003H67.817V15.6387H66.2804V20.9611C66.2804 22.943 66.3695 25.4372 66.4808 27.2188H66.0354C65.3673 25.7935 64.2984 23.767 63.1849 21.9186L59.2878 15.6387H56.8827V29.0003H58.4415V23.6779C58.4415 21.6737 58.3747 19.0236 58.2411 17.153H58.7533C59.4214 18.6005 60.3122 20.3821 61.2252 21.8518L65.6568 29.0003Z" fill="#F5EFE5"/>
<path d="M53.2591 29H55L49.5739 16H47.4487L42 29H43.7183L45.2783 25.0783H51.6765L53.2591 29ZM46.4087 22.24C47.0643 20.6583 47.7426 18.8167 48.24 17.3867H48.76C49.2122 18.795 49.8904 20.68 50.5235 22.24L51.1791 23.8433H45.7757L46.4087 22.24Z" fill="#F5EFE5"/>
</svg>
