<svg width="36" height="36" viewBox="0 0 36 36" fill="none" xmlns="http://www.w3.org/2000/svg">
<path fill-rule="evenodd" clip-rule="evenodd" d="M14.3581 10.8647C14.3581 11.9013 13.6134 12.7307 12.4176 12.7307H12.3957C11.2443 12.7307 10.5 11.9013 10.5 10.8647C10.5 9.80621 11.267 9 12.4402 9C13.6134 9 14.3358 9.80621 14.3581 10.8647ZM14.1322 14.2042V24.9997H10.7028V14.2042H14.1322ZM26.4999 24.9997L26.5 18.8099C26.5 15.494 24.8082 13.9507 22.5515 13.9507C20.7307 13.9507 19.9155 14.9985 19.4603 15.7336V14.2045H16.0305C16.0757 15.2175 16.0305 25 16.0305 25H19.4603V18.9709C19.4603 18.6483 19.4826 18.3264 19.5733 18.0954C19.8211 17.4508 20.3855 16.7835 21.3329 16.7835C22.5744 16.7835 23.0706 17.7734 23.0706 19.2241V24.9997H26.4999Z" fill="black"/>
</svg>
