<svg width="256" height="256" viewBox="0 0 256 256" fill="none" xmlns="http://www.w3.org/2000/svg">
<path d="M24 109H96V99.4667H37.0099V68.8133H89.7624V59.4267H37.0099V30.5333H96V21H24V109Z" fill="black"/>
<path d="M192.824 161.093C218.015 161.093 229.008 172.093 229.008 195.56C229.008 217.267 219.084 230.907 193.893 230.907H170.992V161.093H192.824ZM160 240H194.809C222.901 240 240 223.427 240 195.56C240 167.4 225.038 152 194.351 152H160V240Z" fill="black"/>
<path d="M129 94C129.644 111.952 144.048 126.356 162 127C144.048 127.644 129.644 142.048 129 160C128.356 142.048 113.952 127.644 96 127C113.952 126.356 128.356 111.952 129 94Z" fill="black"/>
</svg>
