<svg width="60" height="39" viewBox="0 0 60 39" fill="none" xmlns="http://www.w3.org/2000/svg">
<path d="M6.67389 10.4752C11.1463 10.4752 13.6722 8.40319 13.6722 5.04191C13.6722 1.17414 10.7987 0.299292 6.00187 0.299292H0V0.437426L1.25135 1.63459L1.22818 14.412L0.0231733 15.7013V15.8394H6.95197V15.7013L5.74696 14.412V10.4752H6.67389ZM6.25677 0.713696C8.22649 0.713696 9.15342 1.61157 9.15342 5.29516C9.15342 9.27804 8.15697 10.0608 6.37264 10.0608H5.74696V0.713696H6.25677Z" fill="#E9DFCE"/>
<path d="M28.3559 0.299292H22.5857V0.437426L23.8371 1.63459L23.8139 12.7084C23.3505 13.2379 22.7943 13.6063 22.0296 13.6063C20.7319 13.6063 20.2684 12.4551 20.2684 10.6133V0.299292H14.5215V0.437426L15.7496 1.63459L15.7265 11.4191C15.7265 14.7344 17.3949 16.1848 19.9903 16.1848C20.616 16.1848 21.5893 15.379 23.8139 13.2839V15.8394H29.5609V15.7013L28.3327 14.5041L28.3559 0.299292Z" fill="#E9DFCE"/>
<path d="M37.3554 5.20307C34.5051 3.52243 33.3696 2.90083 33.3696 1.93388C33.3696 1.40437 33.7636 1.03601 34.5283 1.03601C36.8456 1.03601 40.0667 3.22314 42.6853 6.72255H42.8243V0.0460443H42.7084L41.2253 0.966942C40.3679 0.437426 39.0702 0 37.4481 0C34.227 0 31.6085 1.17414 31.5621 4.44333C31.5158 6.95277 33.1611 8.12692 35.1076 9.27804L37.7957 10.9126C39.9972 12.2019 41.8974 13.0767 41.8974 14.1128C41.8974 14.5502 41.5961 15.0106 40.5533 15.0106C38.7922 15.0106 33.9953 13.6523 31.1913 8.12692L31.0291 8.14994L31.4231 15.2409C33.5087 15.5401 35.4089 16.2999 37.6567 16.2999C41.6656 16.2999 43.6585 13.8595 43.6585 11.3961C43.6585 9.4392 42.384 8.19599 40.1362 6.88371L37.3554 5.20307Z" fill="#E9DFCE"/>
<path d="M60 0.299292H53.0712V0.437426L54.2762 1.72668V8.1039H50.8929V1.72668L52.0748 0.437426V0.299292H45.1691V0.437426L46.351 1.72668V14.412L45.1691 15.7013V15.8394H52.0748V15.7013L50.8929 14.412V8.5183H54.2762V14.412L53.0712 15.7013V15.8394H60V15.7013L58.795 14.412V1.72668L60 0.437426V0.299292Z" fill="#E9DFCE"/>
<path d="M29.1592 23.3217H24.316L21.4888 30.3205H21.373L18.0128 23.2757L13.0074 23.3217V23.4599L14.3051 25.7621V38.8619H19.1947V38.7468C16.3212 36.4215 14.8149 33.3595 14.8149 28.4097V26.8672H14.9308L19.4959 36.1222H19.7508L23.6208 26.66H23.7598L23.783 37.5266L22.5316 38.7237V38.8619H28.3017L28.2786 24.657L29.1592 23.4599V23.3217Z" fill="#E9DFCE"/>
<path d="M43.4996 32.3235C42.9898 33.0832 42.5727 33.7509 42.2019 34.3264C40.1163 37.6647 39.5833 38.4475 36.872 38.4475H36.5013V31.2184H36.733C37.9844 31.2184 38.9113 31.771 40.3712 34.3955H40.5102V27.6499H40.3712C38.8881 30.4587 37.9844 30.827 36.733 30.827H36.5013V23.7361H36.733C39.4443 23.7361 39.9772 24.5189 42.0628 27.8571L43.3605 29.8601H43.4996V23.3217H30.7311V23.4599L31.9825 24.657V37.5266L30.7311 38.7237V38.8619H43.6386V32.3235H43.4996Z" fill="#E9DFCE"/>
<path d="M48.6542 34.3034C49.0249 33.1293 50.6239 27.0514 51.1337 23.2987H46.0588C46.5686 27.0514 48.1675 33.1523 48.5151 34.3034H48.6542ZM48.5847 39C49.7665 39 50.5544 38.2403 50.5544 37.1122C50.5544 36.0071 49.7665 35.2473 48.5847 35.2473C47.3565 35.2473 46.5222 36.0071 46.5222 37.1122C46.5222 38.2403 47.3565 39 48.5847 39Z" fill="#E9DFCE"/>
</svg>
